<?xml version="1.0" encoding="UTF-8"?>
<!-- Generator: Adobe Illustrator 25.4.1, SVG Export Plug-In . SVG Version: 6.00 Build 0)  -->
<svg version="1.1" id="Layer_1" xmlns="http://www.w3.org/2000/svg" xmlns:xlink="http://www.w3.org/1999/xlink" x="0px" y="0px" viewBox="0 0 808.94 251.95" style="enable-background:new 0 0 808.94 251.95;" xml:space="preserve">
<style type="text/css">
	.st0{fill:#D3462D;}
	.st1{fill:#1d1d1b;}
</style>
<g>
	<path class="st0" d="M223.34,164.5c-8.52-31.74-41.16-50.56-72.9-42.03c-31.74,8.52-50.56,41.16-42.03,72.9   c8.52,31.74,41.16,50.56,72.9,42.03C213.04,228.88,231.86,196.24,223.34,164.5z M214,197.73c-3.68,7.77-9.63,14.07-16.55,18.62   c-7.5,4.93-16.16,7.85-24.96,8.75c-8.8,0.89-17.88-0.23-26.21-3.55c-7.7-3.07-12.87-6.85-16.8-11.26   c-4.25-4.76-2.86-10.46-0.17-13.39c3.21-3.5,8.58-3.74,11.78-1.07c19.09,15.24,54.86,19.23,70.51,0.6c0.49-0.58,1.14-0.97,1.8-0.61   C214.06,196.17,214.33,197.04,214,197.73z"/>
	<g>
		<path class="st1" d="M35.23,116.75V22.49c0-0.64,0.55-1.15,1.22-1.15H76.3c11.34,0,20.39,3.04,27.28,9.27    c6.9,6.23,10.42,14.33,10.42,24.47c0,11.79-4.47,20.72-13.54,26.93c-0.49,0.34-0.66,0.96-0.38,1.47l18.05,32.75    c0.42,0.77-0.17,1.68-1.08,1.68H88.56c-0.46,0-0.88-0.25-1.09-0.64L72.81,89.44c-0.21-0.39-0.63-0.64-1.09-0.64h-6.15    c-0.67,0-1.22,0.52-1.22,1.15v26.8c0,0.64-0.55,1.15-1.22,1.15H36.44C35.77,117.9,35.23,117.39,35.23,116.75z M64.35,62.31    c0,0.64,0.55,1.15,1.22,1.15h9.2c5.67,0,9.35-3.33,9.35-8.4c0-5.07-3.68-8.4-9.35-8.4h-9.2c-0.67,0-1.22,0.52-1.22,1.15V62.31z"/>
		<path class="st1" d="M320.34,116.04V23.2c0-1.03,0.88-1.87,1.97-1.87h25.17c1.09,0,1.97,0.84,1.97,1.87v92.83    c0,1.03-0.88,1.87-1.97,1.87h-25.17C321.22,117.9,320.34,117.07,320.34,116.04z"/>
		<path class="st1" d="M187.22,116.53l-3.04-10.52c-0.14-0.5-0.63-0.85-1.18-0.85h-27.72c-0.55,0-1.03,0.35-1.18,0.85l-3.04,10.52    c-0.23,0.81-1.01,1.37-1.91,1.37h-27.2c-1.34,0-2.29-1.23-1.88-2.44l24.35-71.36c0.26-0.77,1.02-1.29,1.88-1.29l20.21,0.01    c0.53,0,1-0.32,1.16-0.8l6.64-19.39c0.26-0.77,1.02-1.29,1.88-1.29h8.74c0.86,0,1.62,0.52,1.88,1.3l31.39,92.83    c0.41,1.2-0.54,2.43-1.88,2.43h-27.21C188.24,117.9,187.46,117.34,187.22,116.53z M162.24,83.44h13.82c0.8,0,1.39-0.72,1.18-1.45    l-6.85-23.87c-0.32-1.13-2.02-1.13-2.35-0.01l-6.97,23.87C160.85,82.72,161.44,83.44,162.24,83.44z"/>
		<path class="st1" d="M262.85,21.34c15.17,0,27.44,4.34,36.63,13.03c9.35,8.69,13.95,20.12,13.95,34.46    c0,14.62-4.75,26.49-14.41,35.61c-9.5,8.98-22.07,13.46-37.71,13.46h-36.81c-1.09,0-1.97-0.84-1.97-1.87V23.2    c0-1.03,0.88-1.87,1.97-1.87H262.85z M262.24,91.84c12.72,0,21.31-9.27,21.31-23.02c0-12.88-8.43-21.43-21.15-21.43h-9.51    c-0.67,0-1.22,0.52-1.22,1.15v42.14c0,0.64,0.55,1.15,1.22,1.15H262.24z"/>
		<path class="st1" d="M370.46,106.32c-9.35-9.41-14.1-21.72-14.1-36.92s4.75-27.51,14.1-36.77c9.35-9.41,21.77-14.04,37.09-14.04    c15.18,0,27.59,4.63,36.94,14.04c9.35,9.27,14.1,21.57,14.26,36.77s-4.6,27.51-13.95,36.92c-9.35,9.41-21.77,14.04-37.25,14.04    C392.23,120.36,379.81,115.73,370.46,106.32z M428.09,69.69c0-14.62-8.12-24.47-20.23-24.32c-12.42,0.14-20.85,9.84-20.85,24.32    c0,14.33,8.43,23.89,20.85,23.89C419.97,93.58,428.09,84.02,428.09,69.69z"/>
	</g>
	<g>
		<path class="st1" d="M93.47,133.5c6.34,2.27,12.05,5.15,17.12,8.65c0.75,0.52,1,1.48,0.61,2.29l-9.25,19.36    c-0.51,1.07-1.9,1.4-2.89,0.7c-7.05-4.98-15.77-8.14-22.35-8.14c-15.11,0-25.13,9.69-25.13,24.16c0,14.61,10.02,24.3,25.13,24.3    c7.32,0,14.77-2.71,22.34-8.14c0.98-0.7,2.38-0.36,2.9,0.71l9.25,19.36c0.38,0.81,0.14,1.77-0.61,2.29    c-5.07,3.52-10.78,6.52-17.12,8.79c-6.88,2.46-13.31,3.62-19.14,3.62c-15.26,0-27.52-4.63-36.94-14.03    c-9.27-9.4-13.91-21.7-13.91-36.89c0-15.19,4.64-27.49,13.91-36.74c9.42-9.4,21.69-14.03,36.94-14.03    C80.15,129.74,86.59,131.04,93.47,133.5z"/>
	</g>
	<path class="st1" d="M358.37,203.92h36.2c1.16,0,2.07,0.94,1.97,2.03l-1.96,21.62c-0.09,0.97-0.94,1.71-1.97,1.71h-62.63   c-1.09,0-1.98-0.84-1.98-1.87V134.5c0-1.03,0.88-1.87,1.98-1.87h62.47c1.09,0,1.98,0.84,1.98,1.87v21.62   c0,1.03-0.88,1.87-1.98,1.87h-34.08c-0.67,0-1.22,0.52-1.22,1.15v8.71c0,0.64,0.55,1.15,1.22,1.15h30.55   c1.09,0,1.98,0.84,1.98,1.87v20.17c0,1.03-0.88,1.87-1.98,1.87h-30.55c-0.67,0-1.22,0.52-1.22,1.15v8.71   C357.15,203.4,357.7,203.92,358.37,203.92z"/>
	<path class="st1" d="M403.86,227.41V134.5c0-1.03,0.88-1.87,1.98-1.87h39.13c11.35,0,20.4,3.04,27.31,9.27   c6.9,6.23,10.43,14.34,10.43,24.49c0,11.8-4.47,20.74-13.55,26.95c-0.49,0.34-0.66,0.96-0.38,1.47l17.49,31.73   c0.68,1.24-0.27,2.73-1.75,2.73H457.7c-0.75,0-1.44-0.4-1.77-1.04l-14.46-27.45c-0.21-0.39-0.63-0.64-1.09-0.64h-6.16   c-0.67,0-1.22,0.52-1.22,1.15v26.1c0,1.03-0.88,1.87-1.98,1.87h-25.19C404.74,229.27,403.86,228.44,403.86,227.41z M433,173.65   c0,0.64,0.55,1.15,1.22,1.15h9.21c5.68,0,9.36-3.33,9.36-8.4c0-5.07-3.68-8.4-9.36-8.4h-9.21c-0.67,0-1.22,0.52-1.22,1.15V173.65z"/>
	<path class="st1" d="M583.49,227.41V134.5c0-1.03,0.88-1.87,1.98-1.87h25.19c1.09,0,1.98,0.84,1.98,1.87v92.91   c0,1.03-0.88,1.87-1.98,1.87h-25.19C584.38,229.27,583.49,228.44,583.49,227.41z"/>
	<path class="st1" d="M684.18,227.9l-3.04-10.53c-0.14-0.5-0.63-0.85-1.18-0.85h-27.74c-0.55,0-1.03,0.35-1.18,0.85l-3.04,10.53   c-0.23,0.81-1.02,1.38-1.91,1.38h-27.22c-1.34,0-2.29-1.23-1.88-2.44l31.71-92.91c0.26-0.77,1.02-1.29,1.88-1.29h31.32   c0.86,0,1.62,0.53,1.88,1.3l31.41,92.91c0.41,1.2-0.54,2.43-1.88,2.43h-27.23C685.2,229.27,684.42,228.71,684.18,227.9z    M659.18,194.79h13.83c0.8,0,1.39-0.72,1.18-1.45l-6.85-23.89c-0.32-1.13-2.02-1.14-2.35-0.01l-6.98,23.89   C657.79,194.07,658.38,194.79,659.18,194.79z"/>
	<path class="st1" d="M749.16,203.92h31.6c1.16,0,2.07,0.94,1.97,2.03l-1.96,21.62c-0.09,0.97-0.94,1.71-1.97,1.71h-58.03   c-1.09,0-1.98-0.84-1.98-1.87V134.5c0-1.03,0.88-1.87,1.98-1.87h25.19c1.09,0,1.98,0.84,1.98,1.87v68.26   C747.94,203.4,748.48,203.92,749.16,203.92z"/>
	<path class="st1" d="M557.61,133.58c6.51,2.27,12.36,5.16,17.56,8.66c0.77,0.52,1.02,1.48,0.63,2.29l-9.49,19.39   c-0.52,1.07-1.95,1.4-2.96,0.7c-7.23-4.99-16.17-8.16-22.92-8.16c-15.49,0-25.77,9.71-25.77,24.2c0,14.63,10.28,24.34,25.77,24.34   c7.51,0,15.15-2.72,22.91-8.15c1.01-0.7,2.45-0.36,2.97,0.71l9.48,19.39c0.39,0.81,0.14,1.77-0.63,2.29   c-5.2,3.52-11.06,6.53-17.56,8.8c-7.06,2.46-13.65,3.62-19.63,3.62c-15.65,0-28.23-4.64-37.89-14.05   c-9.51-9.42-14.27-21.73-14.27-36.95c0-15.21,4.76-27.53,14.27-36.8c9.66-9.42,22.24-14.05,37.89-14.05   C543.96,129.81,550.55,131.11,557.61,133.58z"/>
	<path class="st1" d="M316.5,132.56h-24.53c-0.88,0-1.69,0.45-2.13,1.18L268.1,169.5c-0.46,0.76-1.59,0.76-2.05,0l-21.74-35.76   c-0.44-0.73-1.26-1.18-2.13-1.18h-24.53c-1.37,0-2.47,1.07-2.47,2.39v4.53c7.14,8.29,12.15,18.47,14.07,29.89   c3.12,18.55-2.56,36.51-14.07,49.91v7.38c0,1.32,1.11,2.39,2.47,2.39h23.47c1.37,0,2.47-1.07,2.47-2.39v-42.22   c0-1.18,1.61-1.59,2.22-0.58l12.39,20.74c0.21,0.36,0.6,0.57,1.03,0.57h15.68c0.42,0,0.82-0.22,1.03-0.57l12.39-20.74   c0.61-1.02,2.22-0.6,2.22,0.58v42.22c0,1.32,1.11,2.39,2.47,2.39h23.47c1.37,0,2.47-1.07,2.47-2.39v-91.71   C318.97,133.63,317.86,132.56,316.5,132.56z"/>
</g>
</svg>