<svg id="MEGA-LG-wrap" class="MEGA-LG-wrap" xmlns="http://www.w3.org/2000/svg" viewBox="0 0 96.224 115.662">

                    <g id="MEGA">

                        <path id="MEGA3" class="MEGA3" d="M53.136,80.032,23.052,21.4l33.33,30.376L69.432,25.6,87.644,53.55,117.432,16.4,93.524,75.142Z" transform="translate(-23.052 -16.4)"></path>

                        <path id="MEGA2" class="MEGA2" d="M106.336,76.534V78.09h3v1.434h-3v2.76h-1.828v-7.2h5.652v1.442Zm11.168,5.75v-4.8l-1.672,4.8h-1.4l-1.754-4.8v4.8h-1.652v-7.2h2.58l1.588,4.152,1.412-4.152h2.67v7.2ZM49.02,104.334V91.21l-4.6,13.124H40.61L35.8,91.18v13.154H31.278V84.63H38.34L42.694,96,46.57,84.638h7.318v19.7Zm7.1,0V84.63H71.614v3.93H61.132V92.4h8.2v3.96h-8.2V100.4H71.614v3.924Zm33.9.112H80.086c-4.332,0-6.24-1.932-6.24-6.148V90.7c0-3.786,1.506-6.18,6.038-6.18H90l.258.256v3.678H80.916c-1.454,0-2.078.824-2.078,2.184v7.952c0,1.366.852,1.964,2.3,1.964H85.7v-6.04h4.554v9.712Zm14.3-.112v-4.212H97.15v4.212H92.488V91.01c0-5.27,3.84-6.72,8.426-6.72,4.526,0,8.4,1.678,8.4,6.576v13.468Zm0-13.724c0-1.964-2.216-2.422-3.616-2.422s-3.562.544-3.562,2.444v5.616h7.178ZM51.4,132.062l-5.872-21.4,51.724-1.336L95.214,125.76Zm13.146-6.576-.674-11.9-1.63.1.292,5.172-6.506.366-.29-5.172-1.63.09.672,11.906,1.628-.1-.294-5.314,6.5-.366.3,5.312Zm4.042-.232-.676-11.9-1.63.092.668,11.906Zm11.334-11.23-.074-1.344-10.354.578.08,1.35,4.37-.248.6,10.562,1.614-.1-.6-10.552Zm11.092,7.494-.114-2.044a2.085,2.085,0,0,0-2.053-2.118,2.128,2.128,0,0,0-.365.026l-3.752.22c-.58.028-1.58.066-1.638-1L83,115.11c-.036-.652.184-1.358,1.4-1.43l5.71-.322-.066-1.186-.144-.128-5.954.336c-2.028.114-2.662,1.4-2.6,2.6l.11,1.962c.08,1.4.986,2.2,2.712,2.108l3.7-.2c.854-.054,1.356.23,1.4,1.234l.076,1.32A1.242,1.242,0,0,1,88.1,122.91l-6.2.346.066,1.188.128.13,6.358-.36a2.383,2.383,0,0,0,2.564-2.7Z" transform="translate(-23.052 -16.4)"></path>

                    </g>
                </svg>
